{
    "asset" : {
        "generator" : "Khronos glTF Blender I/O v3.3.27",
        "version" : "2.0"
    },
    "scene" : 0,
    "scenes" : [
        {
            "name" : "Scene",
            "nodes" : [
                9
            ]
        }
    ],
    "nodes" : [
        {
            "mesh" : 0,
            "name" : "Dress_03 - Default_0",
            "scale" : [
                0.0034202667884528637,
                0.0034202667884528637,
                0.0034202667884528637
            ],
            "translation" : [
                0,
                0.2917548716068268,
                0
            ]
        },
        {
            "mesh" : 1,
            "name" : "Crown_07 - Default_0",
            "scale" : [
                1.0891166925430298,
                1.0891166925430298,
                1.0891166925430298
            ],
            "translation" : [
                -2.1046726033091545e-06,
                75.32367706298828,
                1.8747133016586304
            ]
        },
        {
            "mesh" : 2,
            "name" : "Hair_08 - Default_0",
            "translation" : [
                0,
                0.37561798095703125,
                2.1794397830963135
            ]
        },
        {
            "children" : [
                1,
                2
            ],
            "mesh" : 3,
            "name" : "Head_03 - Default_0",
            "scale" : [
                0.0034202667884528637,
                0.0034202667884528637,
                0.0034202667884528637
            ],
            "translation" : [
                0,
                0.291754812002182,
                0
            ]
        },
        {
            "mesh" : 4,
            "name" : "Left_hand_03 - Default_0",
            "translation" : [
                0,
                -7.62939453125e-06,
                0
            ]
        },
        {
            "children" : [
                4
            ],
            "mesh" : 5,
            "name" : "Left_arm_03 - Default_0",
            "scale" : [
                0.0034202667884528637,
                0.0034202667884528637,
                0.0034202667884528637
            ],
            "translation" : [
                0,
                0.291754812002182,
                0
            ]
        },
        {
            "mesh" : 6,
            "name" : "Right_hand_03 - Default_0",
            "translation" : [
                24.876680374145508,
                -26.815582275390625,
                -2.4276161193847656
            ]
        },
        {
            "children" : [
                6
            ],
            "extras" : {
                "prop" : 1.0,
                "axis" : "x",
                "speed" : 1.0,
                "delay" : 1.0,
                "easing" : 1
            },
            "mesh" : 7,
            "name" : "Right_arm_03 - Default_0",
            "rotation" : [
                -0.7561790347099304,
                -0.5113455653190613,
                0.09110645204782486,
                0.39801833033561707
            ],
            "scale" : [
                0.0034202674869447947,
                0.0034202681854367256,
                0.0034202681854367256
            ],
            "translation" : [
                -0.08508654683828354,
                0.3834713399410248,
                0.008303024806082249
            ]
        },
        {
            "mesh" : 8,
            "name" : "Skirt_02 - Default_0",
            "scale" : [
                0.0034202667884528637,
                0.0034202667884528637,
                0.0034202667884528637
            ],
            "translation" : [
                0,
                0.188132643699646,
                0
            ]
        },
        {
            "children" : [
                0,
                3,
                5,
                7,
                8
            ],
            "mesh" : 9,
            "name" : "Princess",
            "scale" : [
                0.6091281175613403,
                0.6091281175613403,
                0.6091281175613403
            ]
        }
    ],
    "materials" : [
        {
            "doubleSided" : true,
            "name" : "03_-_Default",
            "pbrMetallicRoughness" : {
                "baseColorTexture" : {
                    "index" : 0
                },
                "metallicFactor" : 0,
                "roughnessFactor" : 0.8929713368415833
            }
        },
        {
            "doubleSided" : true,
            "name" : "07_-_Default",
            "pbrMetallicRoughness" : {
                "baseColorTexture" : {
                    "index" : 1
                },
                "roughnessFactor" : 0.4068216383457184
            }
        },
        {
            "doubleSided" : true,
            "name" : "08_-_Default",
            "pbrMetallicRoughness" : {
                "baseColorTexture" : {
                    "index" : 2
                },
                "metallicFactor" : 0.8980563879013062,
                "roughnessFactor" : 0.8929713368415833
            }
        },
        {
            "doubleSided" : true,
            "name" : "02_-_Default",
            "pbrMetallicRoughness" : {
                "baseColorTexture" : {
                    "index" : 3
                },
                "roughnessFactor" : 0.8929713368415833
            }
        }
    ],
    "meshes" : [
        {
            "name" : "Dress_03 - Default_0",
            "primitives" : [
                {
                    "attributes" : {
                        "POSITION" : 0,
                        "NORMAL" : 1,
                        "TEXCOORD_0" : 2
                    },
                    "indices" : 3,
                    "material" : 0
                }
            ]
        },
        {
            "name" : "Crown_07 - Default_0",
            "primitives" : [
                {
                    "attributes" : {
                        "POSITION" : 4,
                        "NORMAL" : 5,
                        "TEXCOORD_0" : 6
                    },
                    "indices" : 7,
                    "material" : 1
                }
            ]
        },
        {
            "name" : "Hair_08 - Default_0",
            "primitives" : [
                {
                    "attributes" : {
                        "POSITION" : 8,
                        "NORMAL" : 9,
                        "TEXCOORD_0" : 10
                    },
                    "indices" : 11,
                    "material" : 2
                }
            ]
        },
        {
            "name" : "Head_03 - Default_0",
            "primitives" : [
                {
                    "attributes" : {
                        "POSITION" : 12,
                        "NORMAL" : 13,
                        "TEXCOORD_0" : 14
                    },
                    "indices" : 15,
                    "material" : 0
                }
            ]
        },
        {
            "name" : "Left_hand_03 - Default_0",
            "primitives" : [
                {
                    "attributes" : {
                        "POSITION" : 16,
                        "NORMAL" : 17,
                        "TEXCOORD_0" : 18
                    },
                    "indices" : 19,
                    "material" : 0
                }
            ]
        },
        {
            "name" : "Left_arm_03 - Default_0",
            "primitives" : [
                {
                    "attributes" : {
                        "POSITION" : 20,
                        "NORMAL" : 21,
                        "TEXCOORD_0" : 22
                    },
                    "indices" : 23,
                    "material" : 0
                }
            ]
        },
        {
            "name" : "Right_hand_03 - Default_0",
            "primitives" : [
                {
                    "attributes" : {
                        "POSITION" : 24,
                        "NORMAL" : 25,
                        "TEXCOORD_0" : 26
                    },
                    "indices" : 27,
                    "material" : 0
                }
            ]
        },
        {
            "name" : "Right_arm_03 - Default_0",
            "primitives" : [
                {
                    "attributes" : {
                        "POSITION" : 28,
                        "NORMAL" : 29,
                        "TEXCOORD_0" : 30
                    },
                    "indices" : 31,
                    "material" : 0
                }
            ]
        },
        {
            "name" : "Skirt_02 - Default_0",
            "primitives" : [
                {
                    "attributes" : {
                        "POSITION" : 32,
                        "NORMAL" : 33,
                        "TEXCOORD_0" : 34
                    },
                    "indices" : 35,
                    "material" : 3
                }
            ]
        },
        {
            "name" : "Dress_02 - Default_0",
            "primitives" : [
                {
                    "attributes" : {
                        "POSITION" : 36,
                        "NORMAL" : 37,
                        "TEXCOORD_0" : 38
                    },
                    "indices" : 39,
                    "material" : 3
                }
            ]
        }
    ],
    "textures" : [
        {
            "sampler" : 0,
            "source" : 0
        },
        {
            "sampler" : 0,
            "source" : 1
        },
        {
            "sampler" : 0,
            "source" : 2
        },
        {
            "sampler" : 0,
            "source" : 3
        }
    ],
    "images" : [
        {
            "mimeType" : "image/png",
            "name" : "03_-_Default_baseColor",
            "uri" : "textures/03_-_Default_baseColor.png"
        },
        {
            "mimeType" : "image/png",
            "name" : "07_-_Default_baseColor",
            "uri" : "textures/07_-_Default_baseColor.png"
        },
        {
            "mimeType" : "image/png",
            "name" : "08_-_Default_baseColor",
            "uri" : "textures/08_-_Default_baseColor.png"
        },
        {
            "mimeType" : "image/png",
            "name" : "02_-_Default_baseColor",
            "uri" : "textures/02_-_Default_baseColor.png"
        }
    ],
    "accessors" : [
        {
            "bufferView" : 0,
            "componentType" : 5126,
            "count" : 8,
            "max" : [
                17.91197967529297,
                42.79560470581055,
                16.67632484436035
            ],
            "min" : [
                -19.989925384521484,
                37.6379280090332,
                -13.030314445495605
            ],
            "type" : "VEC3"
        },
        {
            "bufferView" : 1,
            "componentType" : 5126,
            "count" : 8,
            "type" : "VEC3"
        },
        {
            "bufferView" : 2,
            "componentType" : 5126,
            "count" : 8,
            "type" : "VEC2"
        },
        {
            "bufferView" : 3,
            "componentType" : 5123,
            "count" : 18,
            "type" : "SCALAR"
        },
        {
            "bufferView" : 4,
            "componentType" : 5126,
            "count" : 122,
            "max" : [
                23.97024154663086,
                8.087047576904297,
                22.246780395507812
            ],
            "min" : [
                -23.97024154663086,
                -5.446781158447266,
                -22.716657638549805
            ],
            "type" : "VEC3"
        },
        {
            "bufferView" : 5,
            "componentType" : 5126,
            "count" : 122,
            "type" : "VEC3"
        },
        {
            "bufferView" : 6,
            "componentType" : 5126,
            "count" : 122,
            "type" : "VEC2"
        },
        {
            "bufferView" : 7,
            "componentType" : 5123,
            "count" : 348,
            "type" : "SCALAR"
        },
        {
            "bufferView" : 8,
            "componentType" : 5126,
            "count" : 224,
            "max" : [
                22.421463012695312,
                89.55184936523438,
                22.78614616394043
            ],
            "min" : [
                -22.421457290649414,
                13.479331016540527,
                -32.184776306152344
            ],
            "type" : "VEC3"
        },
        {
            "bufferView" : 9,
            "componentType" : 5126,
            "count" : 224,
            "type" : "VEC3"
        },
        {
            "bufferView" : 10,
            "componentType" : 5126,
            "count" : 224,
            "type" : "VEC2"
        },
        {
            "bufferView" : 11,
            "componentType" : 5123,
            "count" : 432,
            "type" : "SCALAR"
        },
        {
            "bufferView" : 12,
            "componentType" : 5126,
            "count" : 39,
            "max" : [
                16.265302658081055,
                81.20549011230469,
                17.701885223388672
            ],
            "min" : [
                -18.466543197631836,
                39.49177169799805,
                -12.948509216308594
            ],
            "type" : "VEC3"
        },
        {
            "bufferView" : 13,
            "componentType" : 5126,
            "count" : 39,
            "type" : "VEC3"
        },
        {
            "bufferView" : 14,
            "componentType" : 5126,
            "count" : 39,
            "type" : "VEC2"
        },
        {
            "bufferView" : 15,
            "componentType" : 5123,
            "count" : 87,
            "type" : "SCALAR"
        },
        {
            "bufferView" : 16,
            "componentType" : 5126,
            "count" : 43,
            "max" : [
                15.25903034210205,
                -26.528575897216797,
                36.931556701660156
            ],
            "min" : [
                0.7492078542709351,
                -46.317630767822266,
                20.148956298828125
            ],
            "type" : "VEC3"
        },
        {
            "bufferView" : 17,
            "componentType" : 5126,
            "count" : 43,
            "type" : "VEC3"
        },
        {
            "bufferView" : 18,
            "componentType" : 5126,
            "count" : 43,
            "type" : "VEC2"
        },
        {
            "bufferView" : 19,
            "componentType" : 5123,
            "count" : 144,
            "type" : "SCALAR"
        },
        {
            "bufferView" : 20,
            "componentType" : 5126,
            "count" : 48,
            "max" : [
                30.98306655883789,
                29.50667381286621,
                31.503671646118164
            ],
            "min" : [
                4.311028957366943,
                -34.625972747802734,
                -2.9302663803100586
            ],
            "type" : "VEC3"
        },
        {
            "bufferView" : 21,
            "componentType" : 5126,
            "count" : 48,
            "type" : "VEC3"
        },
        {
            "bufferView" : 22,
            "componentType" : 5126,
            "count" : 48,
            "type" : "VEC2"
        },
        {
            "bufferView" : 23,
            "componentType" : 5123,
            "count" : 66,
            "type" : "SCALAR"
        },
        {
            "bufferView" : 24,
            "componentType" : 5126,
            "count" : 26,
            "max" : [
                2.2349722385406494,
                -24.471168518066406,
                41.75236511230469
            ],
            "min" : [
                -13.61398696899414,
                -44.42241287231445,
                23.779251098632812
            ],
            "type" : "VEC3"
        },
        {
            "bufferView" : 25,
            "componentType" : 5126,
            "count" : 26,
            "type" : "VEC3"
        },
        {
            "bufferView" : 26,
            "componentType" : 5126,
            "count" : 26,
            "type" : "VEC2"
        },
        {
            "bufferView" : 27,
            "componentType" : 5123,
            "count" : 81,
            "type" : "SCALAR"
        },
        {
            "bufferView" : 28,
            "componentType" : 5126,
            "count" : 52,
            "max" : [
                23.483400344848633,
                3.5418221950531006,
                33.051822662353516
            ],
            "min" : [
                -4.842998504638672,
                -59.673702239990234,
                -4.75532341003418
            ],
            "type" : "VEC3"
        },
        {
            "bufferView" : 29,
            "componentType" : 5126,
            "count" : 52,
            "type" : "VEC3"
        },
        {
            "bufferView" : 30,
            "componentType" : 5126,
            "count" : 52,
            "type" : "VEC2"
        },
        {
            "bufferView" : 31,
            "componentType" : 5123,
            "count" : 78,
            "type" : "SCALAR"
        },
        {
            "bufferView" : 32,
            "componentType" : 5126,
            "count" : 36,
            "max" : [
                34.81224822998047,
                16.819067001342773,
                28.642948150634766
            ],
            "min" : [
                -34.81275939941406,
                -73.09676361083984,
                -28.637136459350586
            ],
            "type" : "VEC3"
        },
        {
            "bufferView" : 33,
            "componentType" : 5126,
            "count" : 36,
            "type" : "VEC3"
        },
        {
            "bufferView" : 34,
            "componentType" : 5126,
            "count" : 36,
            "type" : "VEC2"
        },
        {
            "bufferView" : 35,
            "componentType" : 5123,
            "count" : 87,
            "type" : "SCALAR"
        },
        {
            "bufferView" : 36,
            "componentType" : 5126,
            "count" : 97,
            "max" : [
                0.11266468465328217,
                0.43239906430244446,
                0.08097618073225021
            ],
            "min" : [
                -0.11861066520214081,
                0.21700097620487213,
                -0.05798343941569328
            ],
            "type" : "VEC3"
        },
        {
            "bufferView" : 37,
            "componentType" : 5126,
            "count" : 97,
            "type" : "VEC3"
        },
        {
            "bufferView" : 38,
            "componentType" : 5126,
            "count" : 97,
            "type" : "VEC2"
        },
        {
            "bufferView" : 39,
            "componentType" : 5123,
            "count" : 219,
            "type" : "SCALAR"
        }
    ],
    "bufferViews" : [
        {
            "buffer" : 0,
            "byteLength" : 96,
            "byteOffset" : 0,
            "target" : 34962
        },
        {
            "buffer" : 0,
            "byteLength" : 96,
            "byteOffset" : 96,
            "target" : 34962
        },
        {
            "buffer" : 0,
            "byteLength" : 64,
            "byteOffset" : 192,
            "target" : 34962
        },
        {
            "buffer" : 0,
            "byteLength" : 36,
            "byteOffset" : 256,
            "target" : 34963
        },
        {
            "buffer" : 0,
            "byteLength" : 1464,
            "byteOffset" : 292,
            "target" : 34962
        },
        {
            "buffer" : 0,
            "byteLength" : 1464,
            "byteOffset" : 1756,
            "target" : 34962
        },
        {
            "buffer" : 0,
            "byteLength" : 976,
            "byteOffset" : 3220,
            "target" : 34962
        },
        {
            "buffer" : 0,
            "byteLength" : 696,
            "byteOffset" : 4196,
            "target" : 34963
        },
        {
            "buffer" : 0,
            "byteLength" : 2688,
            "byteOffset" : 4892,
            "target" : 34962
        },
        {
            "buffer" : 0,
            "byteLength" : 2688,
            "byteOffset" : 7580,
            "target" : 34962
        },
        {
            "buffer" : 0,
            "byteLength" : 1792,
            "byteOffset" : 10268,
            "target" : 34962
        },
        {
            "buffer" : 0,
            "byteLength" : 864,
            "byteOffset" : 12060,
            "target" : 34963
        },
        {
            "buffer" : 0,
            "byteLength" : 468,
            "byteOffset" : 12924,
            "target" : 34962
        },
        {
            "buffer" : 0,
            "byteLength" : 468,
            "byteOffset" : 13392,
            "target" : 34962
        },
        {
            "buffer" : 0,
            "byteLength" : 312,
            "byteOffset" : 13860,
            "target" : 34962
        },
        {
            "buffer" : 0,
            "byteLength" : 174,
            "byteOffset" : 14172,
            "target" : 34963
        },
        {
            "buffer" : 0,
            "byteLength" : 516,
            "byteOffset" : 14348,
            "target" : 34962
        },
        {
            "buffer" : 0,
            "byteLength" : 516,
            "byteOffset" : 14864,
            "target" : 34962
        },
        {
            "buffer" : 0,
            "byteLength" : 344,
            "byteOffset" : 15380,
            "target" : 34962
        },
        {
            "buffer" : 0,
            "byteLength" : 288,
            "byteOffset" : 15724,
            "target" : 34963
        },
        {
            "buffer" : 0,
            "byteLength" : 576,
            "byteOffset" : 16012,
            "target" : 34962
        },
        {
            "buffer" : 0,
            "byteLength" : 576,
            "byteOffset" : 16588,
            "target" : 34962
        },
        {
            "buffer" : 0,
            "byteLength" : 384,
            "byteOffset" : 17164,
            "target" : 34962
        },
        {
            "buffer" : 0,
            "byteLength" : 132,
            "byteOffset" : 17548,
            "target" : 34963
        },
        {
            "buffer" : 0,
            "byteLength" : 312,
            "byteOffset" : 17680,
            "target" : 34962
        },
        {
            "buffer" : 0,
            "byteLength" : 312,
            "byteOffset" : 17992,
            "target" : 34962
        },
        {
            "buffer" : 0,
            "byteLength" : 208,
            "byteOffset" : 18304,
            "target" : 34962
        },
        {
            "buffer" : 0,
            "byteLength" : 162,
            "byteOffset" : 18512,
            "target" : 34963
        },
        {
            "buffer" : 0,
            "byteLength" : 624,
            "byteOffset" : 18676,
            "target" : 34962
        },
        {
            "buffer" : 0,
            "byteLength" : 624,
            "byteOffset" : 19300,
            "target" : 34962
        },
        {
            "buffer" : 0,
            "byteLength" : 416,
            "byteOffset" : 19924,
            "target" : 34962
        },
        {
            "buffer" : 0,
            "byteLength" : 156,
            "byteOffset" : 20340,
            "target" : 34963
        },
        {
            "buffer" : 0,
            "byteLength" : 432,
            "byteOffset" : 20496,
            "target" : 34962
        },
        {
            "buffer" : 0,
            "byteLength" : 432,
            "byteOffset" : 20928,
            "target" : 34962
        },
        {
            "buffer" : 0,
            "byteLength" : 288,
            "byteOffset" : 21360,
            "target" : 34962
        },
        {
            "buffer" : 0,
            "byteLength" : 174,
            "byteOffset" : 21648,
            "target" : 34963
        },
        {
            "buffer" : 0,
            "byteLength" : 1164,
            "byteOffset" : 21824,
            "target" : 34962
        },
        {
            "buffer" : 0,
            "byteLength" : 1164,
            "byteOffset" : 22988,
            "target" : 34962
        },
        {
            "buffer" : 0,
            "byteLength" : 776,
            "byteOffset" : 24152,
            "target" : 34962
        },
        {
            "buffer" : 0,
            "byteLength" : 438,
            "byteOffset" : 24928,
            "target" : 34963
        }
    ],
    "samplers" : [
        {
            "magFilter" : 9729,
            "minFilter" : 9987
        }
    ],
    "buffers" : [
        {
            "byteLength" : 25368,
            "uri" : "princess.bin"
        }
    ]
}
